<mxfile host="app.diagrams.net" modified="2023-09-16T15:37:50.371Z" agent="Mozilla/5.0 (Macintosh; Intel Mac OS X 10_15_7) AppleWebKit/537.36 (KHTML, like Gecko) Chrome/116.0.0.0 Safari/537.36" etag="7wQ3DGo2RZzbQemLkA7o" version="21.7.5" type="google">
  <diagram name="PÃ¡gina-1" id="PcH2h9lqNfZXlB4_Tivh">
    <mxGraphModel grid="1" page="1" gridSize="10" guides="1" tooltips="1" connect="1" arrows="1" fold="1" pageScale="1" pageWidth="827" pageHeight="1169" math="0" shadow="0">
      <root>
        <mxCell id="0" />
        <mxCell id="1" parent="0" />
        <mxCell id="IDSFLphf8h5xX9Y6LuN9-1" value="Coche" style="shape=table;startSize=30;container=1;collapsible=0;childLayout=tableLayout;fixedRows=1;rowLines=0;fontStyle=0;strokeColor=#6c8ebf;fontSize=16;fillColor=#dae8fc;" vertex="1" parent="1">
          <mxGeometry x="540" y="-584" width="316" height="494" as="geometry" />
        </mxCell>
        <mxCell id="IDSFLphf8h5xX9Y6LuN9-5" value="" style="shape=tableRow;horizontal=0;startSize=0;swimlaneHead=0;swimlaneBody=0;top=0;left=0;bottom=0;right=0;collapsible=0;dropTarget=0;fillColor=none;points=[[0,0.5],[1,0.5]];portConstraint=eastwest;strokeColor=inherit;fontSize=16;" vertex="1" parent="IDSFLphf8h5xX9Y6LuN9-1">
          <mxGeometry y="30" width="316" height="30" as="geometry" />
        </mxCell>
        <mxCell id="IDSFLphf8h5xX9Y6LuN9-6" value="PK" style="shape=partialRectangle;html=1;whiteSpace=wrap;connectable=0;fillColor=none;top=0;left=0;bottom=0;right=0;overflow=hidden;strokeColor=inherit;fontSize=16;" vertex="1" parent="IDSFLphf8h5xX9Y6LuN9-5">
          <mxGeometry width="40" height="30" as="geometry">
            <mxRectangle width="40" height="30" as="alternateBounds" />
          </mxGeometry>
        </mxCell>
        <mxCell id="IDSFLphf8h5xX9Y6LuN9-7" value="matricula VARCHAR(15)&amp;nbsp; NULL," style="shape=partialRectangle;html=1;whiteSpace=wrap;connectable=0;fillColor=none;top=0;left=0;bottom=0;right=0;align=left;spacingLeft=6;overflow=hidden;strokeColor=inherit;fontSize=16;" vertex="1" parent="IDSFLphf8h5xX9Y6LuN9-5">
          <mxGeometry x="40" width="276" height="30" as="geometry">
            <mxRectangle width="276" height="30" as="alternateBounds" />
          </mxGeometry>
        </mxCell>
        <mxCell id="IDSFLphf8h5xX9Y6LuN9-8" value="" style="shape=tableRow;horizontal=0;startSize=0;swimlaneHead=0;swimlaneBody=0;top=0;left=0;bottom=0;right=0;collapsible=0;dropTarget=0;fillColor=none;points=[[0,0.5],[1,0.5]];portConstraint=eastwest;strokeColor=inherit;fontSize=16;" vertex="1" parent="IDSFLphf8h5xX9Y6LuN9-1">
          <mxGeometry y="60" width="316" height="40" as="geometry" />
        </mxCell>
        <mxCell id="IDSFLphf8h5xX9Y6LuN9-9" value="" style="shape=partialRectangle;html=1;whiteSpace=wrap;connectable=0;fillColor=none;top=0;left=0;bottom=0;right=0;overflow=hidden;strokeColor=inherit;fontSize=16;" vertex="1" parent="IDSFLphf8h5xX9Y6LuN9-8">
          <mxGeometry width="40" height="40" as="geometry">
            <mxRectangle width="40" height="40" as="alternateBounds" />
          </mxGeometry>
        </mxCell>
        <mxCell id="IDSFLphf8h5xX9Y6LuN9-10" value="color VARCHAR(50)&amp;nbsp; NULL," style="shape=partialRectangle;html=1;whiteSpace=wrap;connectable=0;fillColor=none;top=0;left=0;bottom=0;right=0;align=left;spacingLeft=6;overflow=hidden;strokeColor=inherit;fontSize=16;" vertex="1" parent="IDSFLphf8h5xX9Y6LuN9-8">
          <mxGeometry x="40" width="276" height="40" as="geometry">
            <mxRectangle width="276" height="40" as="alternateBounds" />
          </mxGeometry>
        </mxCell>
        <mxCell id="IDSFLphf8h5xX9Y6LuN9-260" value="" style="shape=tableRow;horizontal=0;startSize=0;swimlaneHead=0;swimlaneBody=0;top=0;left=0;bottom=0;right=0;collapsible=0;dropTarget=0;fillColor=none;points=[[0,0.5],[1,0.5]];portConstraint=eastwest;strokeColor=inherit;fontSize=16;" vertex="1" parent="IDSFLphf8h5xX9Y6LuN9-1">
          <mxGeometry y="100" width="316" height="30" as="geometry" />
        </mxCell>
        <mxCell id="IDSFLphf8h5xX9Y6LuN9-261" value="" style="shape=partialRectangle;html=1;whiteSpace=wrap;connectable=0;fillColor=none;top=0;left=0;bottom=0;right=0;overflow=hidden;pointerEvents=1;strokeColor=inherit;fontSize=16;" vertex="1" parent="IDSFLphf8h5xX9Y6LuN9-260">
          <mxGeometry width="40" height="30" as="geometry">
            <mxRectangle width="40" height="30" as="alternateBounds" />
          </mxGeometry>
        </mxCell>
        <mxCell id="IDSFLphf8h5xX9Y6LuN9-262" value="kilometros_totales INT NULL," style="shape=partialRectangle;html=1;whiteSpace=wrap;connectable=0;fillColor=none;top=0;left=0;bottom=0;right=0;align=left;spacingLeft=6;overflow=hidden;strokeColor=inherit;fontSize=16;" vertex="1" parent="IDSFLphf8h5xX9Y6LuN9-260">
          <mxGeometry x="40" width="276" height="30" as="geometry">
            <mxRectangle width="276" height="30" as="alternateBounds" />
          </mxGeometry>
        </mxCell>
        <mxCell id="IDSFLphf8h5xX9Y6LuN9-263" value="" style="shape=tableRow;horizontal=0;startSize=0;swimlaneHead=0;swimlaneBody=0;top=0;left=0;bottom=0;right=0;collapsible=0;dropTarget=0;fillColor=none;points=[[0,0.5],[1,0.5]];portConstraint=eastwest;strokeColor=inherit;fontSize=16;" vertex="1" parent="IDSFLphf8h5xX9Y6LuN9-1">
          <mxGeometry y="130" width="316" height="30" as="geometry" />
        </mxCell>
        <mxCell id="IDSFLphf8h5xX9Y6LuN9-264" value="" style="shape=partialRectangle;html=1;whiteSpace=wrap;connectable=0;fillColor=none;top=0;left=0;bottom=0;right=0;overflow=hidden;pointerEvents=1;strokeColor=inherit;fontSize=16;" vertex="1" parent="IDSFLphf8h5xX9Y6LuN9-263">
          <mxGeometry width="40" height="30" as="geometry">
            <mxRectangle width="40" height="30" as="alternateBounds" />
          </mxGeometry>
        </mxCell>
        <mxCell id="IDSFLphf8h5xX9Y6LuN9-265" value="fecha_compra DATE&amp;nbsp; NULL," style="shape=partialRectangle;html=1;whiteSpace=wrap;connectable=0;fillColor=none;top=0;left=0;bottom=0;right=0;align=left;spacingLeft=6;overflow=hidden;strokeColor=inherit;fontSize=16;" vertex="1" parent="IDSFLphf8h5xX9Y6LuN9-263">
          <mxGeometry x="40" width="276" height="30" as="geometry">
            <mxRectangle width="276" height="30" as="alternateBounds" />
          </mxGeometry>
        </mxCell>
        <mxCell id="IDSFLphf8h5xX9Y6LuN9-288" value="" style="shape=tableRow;horizontal=0;startSize=0;swimlaneHead=0;swimlaneBody=0;top=0;left=0;bottom=0;right=0;collapsible=0;dropTarget=0;fillColor=none;points=[[0,0.5],[1,0.5]];portConstraint=eastwest;strokeColor=inherit;fontSize=16;" vertex="1" parent="IDSFLphf8h5xX9Y6LuN9-1">
          <mxGeometry y="160" width="316" height="30" as="geometry" />
        </mxCell>
        <mxCell id="IDSFLphf8h5xX9Y6LuN9-289" value="" style="shape=partialRectangle;html=1;whiteSpace=wrap;connectable=0;fillColor=none;top=0;left=0;bottom=0;right=0;overflow=hidden;pointerEvents=1;strokeColor=inherit;fontSize=16;" vertex="1" parent="IDSFLphf8h5xX9Y6LuN9-288">
          <mxGeometry width="40" height="30" as="geometry">
            <mxRectangle width="40" height="30" as="alternateBounds" />
          </mxGeometry>
        </mxCell>
        <mxCell id="IDSFLphf8h5xX9Y6LuN9-290" value="moneda VARCHAR(50)&amp;nbsp; NULL," style="shape=partialRectangle;html=1;whiteSpace=wrap;connectable=0;fillColor=none;top=0;left=0;bottom=0;right=0;align=left;spacingLeft=6;overflow=hidden;strokeColor=inherit;fontSize=16;" vertex="1" parent="IDSFLphf8h5xX9Y6LuN9-288">
          <mxGeometry x="40" width="276" height="30" as="geometry">
            <mxRectangle width="276" height="30" as="alternateBounds" />
          </mxGeometry>
        </mxCell>
        <mxCell id="IDSFLphf8h5xX9Y6LuN9-310" value="" style="shape=tableRow;horizontal=0;startSize=0;swimlaneHead=0;swimlaneBody=0;top=0;left=0;bottom=0;right=0;collapsible=0;dropTarget=0;fillColor=none;points=[[0,0.5],[1,0.5]];portConstraint=eastwest;strokeColor=inherit;fontSize=16;" vertex="1" parent="IDSFLphf8h5xX9Y6LuN9-1">
          <mxGeometry y="190" width="316" height="30" as="geometry" />
        </mxCell>
        <mxCell id="IDSFLphf8h5xX9Y6LuN9-311" value="" style="shape=partialRectangle;html=1;whiteSpace=wrap;connectable=0;fillColor=none;top=0;left=0;bottom=0;right=0;overflow=hidden;pointerEvents=1;strokeColor=inherit;fontSize=16;" vertex="1" parent="IDSFLphf8h5xX9Y6LuN9-310">
          <mxGeometry width="40" height="30" as="geometry">
            <mxRectangle width="40" height="30" as="alternateBounds" />
          </mxGeometry>
        </mxCell>
        <mxCell id="IDSFLphf8h5xX9Y6LuN9-312" value="aseguradora INT&amp;nbsp; NULL," style="shape=partialRectangle;html=1;whiteSpace=wrap;connectable=0;fillColor=none;top=0;left=0;bottom=0;right=0;align=left;spacingLeft=6;overflow=hidden;strokeColor=inherit;fontSize=16;" vertex="1" parent="IDSFLphf8h5xX9Y6LuN9-310">
          <mxGeometry x="40" width="276" height="30" as="geometry">
            <mxRectangle width="276" height="30" as="alternateBounds" />
          </mxGeometry>
        </mxCell>
        <mxCell id="IDSFLphf8h5xX9Y6LuN9-330" value="" style="shape=tableRow;horizontal=0;startSize=0;swimlaneHead=0;swimlaneBody=0;top=0;left=0;bottom=0;right=0;collapsible=0;dropTarget=0;fillColor=none;points=[[0,0.5],[1,0.5]];portConstraint=eastwest;strokeColor=inherit;fontSize=16;" vertex="1" parent="IDSFLphf8h5xX9Y6LuN9-1">
          <mxGeometry y="220" width="316" height="30" as="geometry" />
        </mxCell>
        <mxCell id="IDSFLphf8h5xX9Y6LuN9-331" value="" style="shape=partialRectangle;html=1;whiteSpace=wrap;connectable=0;fillColor=none;top=0;left=0;bottom=0;right=0;overflow=hidden;pointerEvents=1;strokeColor=inherit;fontSize=16;" vertex="1" parent="IDSFLphf8h5xX9Y6LuN9-330">
          <mxGeometry width="40" height="30" as="geometry">
            <mxRectangle width="40" height="30" as="alternateBounds" />
          </mxGeometry>
        </mxCell>
        <mxCell id="IDSFLphf8h5xX9Y6LuN9-332" value="modelo INT NULL," style="shape=partialRectangle;html=1;whiteSpace=wrap;connectable=0;fillColor=none;top=0;left=0;bottom=0;right=0;align=left;spacingLeft=6;overflow=hidden;strokeColor=inherit;fontSize=16;" vertex="1" parent="IDSFLphf8h5xX9Y6LuN9-330">
          <mxGeometry x="40" width="276" height="30" as="geometry">
            <mxRectangle width="276" height="30" as="alternateBounds" />
          </mxGeometry>
        </mxCell>
        <mxCell id="IDSFLphf8h5xX9Y6LuN9-333" value="" style="shape=tableRow;horizontal=0;startSize=0;swimlaneHead=0;swimlaneBody=0;top=0;left=0;bottom=0;right=0;collapsible=0;dropTarget=0;fillColor=none;points=[[0,0.5],[1,0.5]];portConstraint=eastwest;strokeColor=inherit;fontSize=16;" vertex="1" parent="IDSFLphf8h5xX9Y6LuN9-1">
          <mxGeometry y="250" width="316" height="30" as="geometry" />
        </mxCell>
        <mxCell id="IDSFLphf8h5xX9Y6LuN9-334" value="" style="shape=partialRectangle;html=1;whiteSpace=wrap;connectable=0;fillColor=none;top=0;left=0;bottom=0;right=0;overflow=hidden;pointerEvents=1;strokeColor=inherit;fontSize=16;" vertex="1" parent="IDSFLphf8h5xX9Y6LuN9-333">
          <mxGeometry width="40" height="30" as="geometry">
            <mxRectangle width="40" height="30" as="alternateBounds" />
          </mxGeometry>
        </mxCell>
        <mxCell id="IDSFLphf8h5xX9Y6LuN9-335" value="numero_poliza INT NULL," style="shape=partialRectangle;html=1;whiteSpace=wrap;connectable=0;fillColor=none;top=0;left=0;bottom=0;right=0;align=left;spacingLeft=6;overflow=hidden;strokeColor=inherit;fontSize=16;" vertex="1" parent="IDSFLphf8h5xX9Y6LuN9-333">
          <mxGeometry x="40" width="276" height="30" as="geometry">
            <mxRectangle width="276" height="30" as="alternateBounds" />
          </mxGeometry>
        </mxCell>
        <mxCell id="IDSFLphf8h5xX9Y6LuN9-347" value="" style="shape=tableRow;horizontal=0;startSize=0;swimlaneHead=0;swimlaneBody=0;top=0;left=0;bottom=0;right=0;collapsible=0;dropTarget=0;fillColor=none;points=[[0,0.5],[1,0.5]];portConstraint=eastwest;strokeColor=inherit;fontSize=16;" vertex="1" parent="IDSFLphf8h5xX9Y6LuN9-1">
          <mxGeometry y="280" width="316" height="30" as="geometry" />
        </mxCell>
        <mxCell id="IDSFLphf8h5xX9Y6LuN9-348" value="" style="shape=partialRectangle;html=1;whiteSpace=wrap;connectable=0;fillColor=none;top=0;left=0;bottom=0;right=0;overflow=hidden;pointerEvents=1;strokeColor=inherit;fontSize=16;" vertex="1" parent="IDSFLphf8h5xX9Y6LuN9-347">
          <mxGeometry width="40" height="30" as="geometry">
            <mxRectangle width="40" height="30" as="alternateBounds" />
          </mxGeometry>
        </mxCell>
        <mxCell id="IDSFLphf8h5xX9Y6LuN9-349" value="fecha_alta_seguro DATE," style="shape=partialRectangle;html=1;whiteSpace=wrap;connectable=0;fillColor=none;top=0;left=0;bottom=0;right=0;align=left;spacingLeft=6;overflow=hidden;strokeColor=inherit;fontSize=16;" vertex="1" parent="IDSFLphf8h5xX9Y6LuN9-347">
          <mxGeometry x="40" width="276" height="30" as="geometry">
            <mxRectangle width="276" height="30" as="alternateBounds" />
          </mxGeometry>
        </mxCell>
        <mxCell id="IDSFLphf8h5xX9Y6LuN9-375" value="" style="shape=tableRow;horizontal=0;startSize=0;swimlaneHead=0;swimlaneBody=0;top=0;left=0;bottom=0;right=0;collapsible=0;dropTarget=0;fillColor=none;points=[[0,0.5],[1,0.5]];portConstraint=eastwest;strokeColor=inherit;fontSize=16;" vertex="1" parent="IDSFLphf8h5xX9Y6LuN9-1">
          <mxGeometry y="310" width="316" height="30" as="geometry" />
        </mxCell>
        <mxCell id="IDSFLphf8h5xX9Y6LuN9-376" value="" style="shape=partialRectangle;html=1;whiteSpace=wrap;connectable=0;fillColor=none;top=0;left=0;bottom=0;right=0;overflow=hidden;pointerEvents=1;strokeColor=inherit;fontSize=16;" vertex="1" parent="IDSFLphf8h5xX9Y6LuN9-375">
          <mxGeometry width="40" height="30" as="geometry">
            <mxRectangle width="40" height="30" as="alternateBounds" />
          </mxGeometry>
        </mxCell>
        <mxCell id="IDSFLphf8h5xX9Y6LuN9-377" value="marca VARCHAR(50) NOT NULL," style="shape=partialRectangle;html=1;whiteSpace=wrap;connectable=0;fillColor=none;top=0;left=0;bottom=0;right=0;align=left;spacingLeft=6;overflow=hidden;strokeColor=inherit;fontSize=16;" vertex="1" parent="IDSFLphf8h5xX9Y6LuN9-375">
          <mxGeometry x="40" width="276" height="30" as="geometry">
            <mxRectangle width="276" height="30" as="alternateBounds" />
          </mxGeometry>
        </mxCell>
        <mxCell id="IDSFLphf8h5xX9Y6LuN9-378" value="" style="shape=tableRow;horizontal=0;startSize=0;swimlaneHead=0;swimlaneBody=0;top=0;left=0;bottom=0;right=0;collapsible=0;dropTarget=0;fillColor=none;points=[[0,0.5],[1,0.5]];portConstraint=eastwest;strokeColor=inherit;fontSize=16;" vertex="1" parent="IDSFLphf8h5xX9Y6LuN9-1">
          <mxGeometry y="340" width="316" height="34" as="geometry" />
        </mxCell>
        <mxCell id="IDSFLphf8h5xX9Y6LuN9-379" value="" style="shape=partialRectangle;html=1;whiteSpace=wrap;connectable=0;fillColor=none;top=0;left=0;bottom=0;right=0;overflow=hidden;pointerEvents=1;strokeColor=inherit;fontSize=16;" vertex="1" parent="IDSFLphf8h5xX9Y6LuN9-378">
          <mxGeometry width="40" height="34" as="geometry">
            <mxRectangle width="40" height="34" as="alternateBounds" />
          </mxGeometry>
        </mxCell>
        <mxCell id="IDSFLphf8h5xX9Y6LuN9-380" value="grupo VARCHAR(50) NULL" style="shape=partialRectangle;html=1;whiteSpace=wrap;connectable=0;fillColor=none;top=0;left=0;bottom=0;right=0;align=left;spacingLeft=6;overflow=hidden;strokeColor=inherit;fontSize=16;" vertex="1" parent="IDSFLphf8h5xX9Y6LuN9-378">
          <mxGeometry x="40" width="276" height="34" as="geometry">
            <mxRectangle width="276" height="34" as="alternateBounds" />
          </mxGeometry>
        </mxCell>
        <mxCell id="IDSFLphf8h5xX9Y6LuN9-388" value="" style="shape=tableRow;horizontal=0;startSize=0;swimlaneHead=0;swimlaneBody=0;top=0;left=0;bottom=0;right=0;collapsible=0;dropTarget=0;fillColor=none;points=[[0,0.5],[1,0.5]];portConstraint=eastwest;strokeColor=inherit;fontSize=16;" vertex="1" parent="IDSFLphf8h5xX9Y6LuN9-1">
          <mxGeometry y="374" width="316" height="40" as="geometry" />
        </mxCell>
        <mxCell id="IDSFLphf8h5xX9Y6LuN9-389" value="PK" style="shape=partialRectangle;html=1;whiteSpace=wrap;connectable=0;fillColor=none;top=0;left=0;bottom=0;right=0;overflow=hidden;pointerEvents=1;strokeColor=inherit;fontSize=16;" vertex="1" parent="IDSFLphf8h5xX9Y6LuN9-388">
          <mxGeometry width="40" height="40" as="geometry">
            <mxRectangle width="40" height="40" as="alternateBounds" />
          </mxGeometry>
        </mxCell>
        <mxCell id="IDSFLphf8h5xX9Y6LuN9-390" value="fecha_revision DATE NULL," style="shape=partialRectangle;html=1;whiteSpace=wrap;connectable=0;fillColor=none;top=0;left=0;bottom=0;right=0;align=left;spacingLeft=6;overflow=hidden;strokeColor=inherit;fontSize=16;" vertex="1" parent="IDSFLphf8h5xX9Y6LuN9-388">
          <mxGeometry x="40" width="276" height="40" as="geometry">
            <mxRectangle width="276" height="40" as="alternateBounds" />
          </mxGeometry>
        </mxCell>
        <mxCell id="IDSFLphf8h5xX9Y6LuN9-393" value="" style="shape=tableRow;horizontal=0;startSize=0;swimlaneHead=0;swimlaneBody=0;top=0;left=0;bottom=0;right=0;collapsible=0;dropTarget=0;fillColor=none;points=[[0,0.5],[1,0.5]];portConstraint=eastwest;strokeColor=inherit;fontSize=16;" vertex="1" parent="IDSFLphf8h5xX9Y6LuN9-1">
          <mxGeometry y="414" width="316" height="50" as="geometry" />
        </mxCell>
        <mxCell id="IDSFLphf8h5xX9Y6LuN9-394" value="" style="shape=partialRectangle;html=1;whiteSpace=wrap;connectable=0;fillColor=none;top=0;left=0;bottom=0;right=0;overflow=hidden;pointerEvents=1;strokeColor=inherit;fontSize=16;" vertex="1" parent="IDSFLphf8h5xX9Y6LuN9-393">
          <mxGeometry width="40" height="50" as="geometry">
            <mxRectangle width="40" height="50" as="alternateBounds" />
          </mxGeometry>
        </mxCell>
        <mxCell id="IDSFLphf8h5xX9Y6LuN9-395" value="importe_de_revision FLOAT NULL," style="shape=partialRectangle;html=1;whiteSpace=wrap;connectable=0;fillColor=none;top=0;left=0;bottom=0;right=0;align=left;spacingLeft=6;overflow=hidden;strokeColor=inherit;fontSize=16;" vertex="1" parent="IDSFLphf8h5xX9Y6LuN9-393">
          <mxGeometry x="40" width="276" height="50" as="geometry">
            <mxRectangle width="276" height="50" as="alternateBounds" />
          </mxGeometry>
        </mxCell>
        <mxCell id="IDSFLphf8h5xX9Y6LuN9-396" value="" style="shape=tableRow;horizontal=0;startSize=0;swimlaneHead=0;swimlaneBody=0;top=0;left=0;bottom=0;right=0;collapsible=0;dropTarget=0;fillColor=none;points=[[0,0.5],[1,0.5]];portConstraint=eastwest;strokeColor=inherit;fontSize=16;" vertex="1" parent="IDSFLphf8h5xX9Y6LuN9-1">
          <mxGeometry y="464" width="316" height="20" as="geometry" />
        </mxCell>
        <mxCell id="IDSFLphf8h5xX9Y6LuN9-397" value="" style="shape=partialRectangle;html=1;whiteSpace=wrap;connectable=0;fillColor=none;top=0;left=0;bottom=0;right=0;overflow=hidden;pointerEvents=1;strokeColor=inherit;fontSize=16;" vertex="1" parent="IDSFLphf8h5xX9Y6LuN9-396">
          <mxGeometry width="40" height="20" as="geometry">
            <mxRectangle width="40" height="20" as="alternateBounds" />
          </mxGeometry>
        </mxCell>
        <mxCell id="IDSFLphf8h5xX9Y6LuN9-398" value="kilometros_de_revision INT NULL," style="shape=partialRectangle;html=1;whiteSpace=wrap;connectable=0;fillColor=none;top=0;left=0;bottom=0;right=0;align=left;spacingLeft=6;overflow=hidden;strokeColor=inherit;fontSize=16;" vertex="1" parent="IDSFLphf8h5xX9Y6LuN9-396">
          <mxGeometry x="40" width="276" height="20" as="geometry">
            <mxRectangle width="276" height="20" as="alternateBounds" />
          </mxGeometry>
        </mxCell>
        <mxCell id="IDSFLphf8h5xX9Y6LuN9-182" value="Revision" style="shape=table;startSize=30;container=1;collapsible=0;childLayout=tableLayout;fixedRows=1;rowLines=0;fontStyle=0;strokeColor=#6c8ebf;fontSize=16;fillColor=#dae8fc;" vertex="1" parent="1">
          <mxGeometry x="130" y="-460" width="316" height="180" as="geometry" />
        </mxCell>
        <mxCell id="IDSFLphf8h5xX9Y6LuN9-186" value="" style="shape=tableRow;horizontal=0;startSize=0;swimlaneHead=0;swimlaneBody=0;top=0;left=0;bottom=0;right=0;collapsible=0;dropTarget=0;fillColor=none;points=[[0,0.5],[1,0.5]];portConstraint=eastwest;strokeColor=inherit;fontSize=16;" vertex="1" parent="IDSFLphf8h5xX9Y6LuN9-182">
          <mxGeometry y="30" width="316" height="30" as="geometry" />
        </mxCell>
        <mxCell id="IDSFLphf8h5xX9Y6LuN9-187" value="" style="shape=partialRectangle;html=1;whiteSpace=wrap;connectable=0;fillColor=none;top=0;left=0;bottom=0;right=0;overflow=hidden;strokeColor=inherit;fontSize=16;" vertex="1" parent="IDSFLphf8h5xX9Y6LuN9-186">
          <mxGeometry width="40" height="30" as="geometry">
            <mxRectangle width="40" height="30" as="alternateBounds" />
          </mxGeometry>
        </mxCell>
        <mxCell id="IDSFLphf8h5xX9Y6LuN9-188" value="&lt;meta charset=&quot;utf-8&quot;&gt;&lt;span style=&quot;color: rgb(0, 0, 0); font-family: Helvetica; font-size: 16px; font-style: normal; font-variant-ligatures: normal; font-variant-caps: normal; font-weight: 400; letter-spacing: normal; orphans: 2; text-align: left; text-indent: 0px; text-transform: none; widows: 2; word-spacing: 0px; -webkit-text-stroke-width: 0px; background-color: rgb(251, 251, 251); text-decoration-thickness: initial; text-decoration-style: initial; text-decoration-color: initial; float: none; display: inline !important;&quot;&gt;kilometros_de_revision INT NULL,&lt;/span&gt;" style="shape=partialRectangle;html=1;whiteSpace=wrap;connectable=0;fillColor=none;top=0;left=0;bottom=0;right=0;align=left;spacingLeft=6;overflow=hidden;strokeColor=inherit;fontSize=16;" vertex="1" parent="IDSFLphf8h5xX9Y6LuN9-186">
          <mxGeometry x="40" width="276" height="30" as="geometry">
            <mxRectangle width="276" height="30" as="alternateBounds" />
          </mxGeometry>
        </mxCell>
        <mxCell id="IDSFLphf8h5xX9Y6LuN9-192" value="" style="shape=tableRow;horizontal=0;startSize=0;swimlaneHead=0;swimlaneBody=0;top=0;left=0;bottom=0;right=0;collapsible=0;dropTarget=0;fillColor=none;points=[[0,0.5],[1,0.5]];portConstraint=eastwest;strokeColor=inherit;fontSize=16;" vertex="1" parent="IDSFLphf8h5xX9Y6LuN9-182">
          <mxGeometry y="60" width="316" height="40" as="geometry" />
        </mxCell>
        <mxCell id="IDSFLphf8h5xX9Y6LuN9-193" value="" style="shape=partialRectangle;html=1;whiteSpace=wrap;connectable=0;fillColor=none;top=0;left=0;bottom=0;right=0;overflow=hidden;strokeColor=inherit;fontSize=16;" vertex="1" parent="IDSFLphf8h5xX9Y6LuN9-192">
          <mxGeometry width="40" height="40" as="geometry">
            <mxRectangle width="40" height="40" as="alternateBounds" />
          </mxGeometry>
        </mxCell>
        <mxCell id="IDSFLphf8h5xX9Y6LuN9-194" value="&lt;span style=&quot;color: rgb(0, 0, 0); font-family: Helvetica; font-size: 16px; font-style: normal; font-variant-ligatures: normal; font-variant-caps: normal; font-weight: 400; letter-spacing: normal; orphans: 2; text-align: left; text-indent: 0px; text-transform: none; widows: 2; word-spacing: 0px; -webkit-text-stroke-width: 0px; background-color: rgb(251, 251, 251); text-decoration-thickness: initial; text-decoration-style: initial; text-decoration-color: initial; float: none; display: inline !important;&quot;&gt;importe_revision FLOAT NULL,&lt;/span&gt;" style="shape=partialRectangle;html=1;whiteSpace=wrap;connectable=0;fillColor=none;top=0;left=0;bottom=0;right=0;align=left;spacingLeft=6;overflow=hidden;strokeColor=inherit;fontSize=16;" vertex="1" parent="IDSFLphf8h5xX9Y6LuN9-192">
          <mxGeometry x="40" width="276" height="40" as="geometry">
            <mxRectangle width="276" height="40" as="alternateBounds" />
          </mxGeometry>
        </mxCell>
        <mxCell id="IDSFLphf8h5xX9Y6LuN9-195" value="" style="shape=tableRow;horizontal=0;startSize=0;swimlaneHead=0;swimlaneBody=0;top=0;left=0;bottom=0;right=0;collapsible=0;dropTarget=0;fillColor=none;points=[[0,0.5],[1,0.5]];portConstraint=eastwest;strokeColor=inherit;fontSize=16;" vertex="1" parent="IDSFLphf8h5xX9Y6LuN9-182">
          <mxGeometry y="100" width="316" height="40" as="geometry" />
        </mxCell>
        <mxCell id="IDSFLphf8h5xX9Y6LuN9-196" value="PK&lt;br&gt;FK" style="shape=partialRectangle;html=1;whiteSpace=wrap;connectable=0;fillColor=none;top=0;left=0;bottom=0;right=0;overflow=hidden;strokeColor=inherit;fontSize=16;" vertex="1" parent="IDSFLphf8h5xX9Y6LuN9-195">
          <mxGeometry width="40" height="40" as="geometry">
            <mxRectangle width="40" height="40" as="alternateBounds" />
          </mxGeometry>
        </mxCell>
        <mxCell id="IDSFLphf8h5xX9Y6LuN9-197" value="&lt;meta charset=&quot;utf-8&quot;&gt;&lt;span style=&quot;color: rgb(0, 0, 0); font-family: Helvetica; font-size: 16px; font-style: normal; font-variant-ligatures: normal; font-variant-caps: normal; font-weight: 400; letter-spacing: normal; orphans: 2; text-align: left; text-indent: 0px; text-transform: none; widows: 2; word-spacing: 0px; -webkit-text-stroke-width: 0px; background-color: rgb(251, 251, 251); text-decoration-thickness: initial; text-decoration-style: initial; text-decoration-color: initial; float: none; display: inline !important;&quot;&gt;fecha_de_revision DATE NULL,&lt;/span&gt;" style="shape=partialRectangle;html=1;whiteSpace=wrap;connectable=0;fillColor=none;top=0;left=0;bottom=0;right=0;align=left;spacingLeft=6;overflow=hidden;strokeColor=inherit;fontSize=16;" vertex="1" parent="IDSFLphf8h5xX9Y6LuN9-195">
          <mxGeometry x="40" width="276" height="40" as="geometry">
            <mxRectangle width="276" height="40" as="alternateBounds" />
          </mxGeometry>
        </mxCell>
        <mxCell id="IDSFLphf8h5xX9Y6LuN9-227" value="" style="shape=tableRow;horizontal=0;startSize=0;swimlaneHead=0;swimlaneBody=0;top=0;left=0;bottom=0;right=0;collapsible=0;dropTarget=0;fillColor=none;points=[[0,0.5],[1,0.5]];portConstraint=eastwest;strokeColor=inherit;fontSize=16;" vertex="1" parent="IDSFLphf8h5xX9Y6LuN9-182">
          <mxGeometry y="140" width="316" height="40" as="geometry" />
        </mxCell>
        <mxCell id="IDSFLphf8h5xX9Y6LuN9-228" value="PK&lt;br&gt;FK" style="shape=partialRectangle;html=1;whiteSpace=wrap;connectable=0;fillColor=none;top=0;left=0;bottom=0;right=0;overflow=hidden;pointerEvents=1;strokeColor=inherit;fontSize=16;" vertex="1" parent="IDSFLphf8h5xX9Y6LuN9-227">
          <mxGeometry width="40" height="40" as="geometry">
            <mxRectangle width="40" height="40" as="alternateBounds" />
          </mxGeometry>
        </mxCell>
        <mxCell id="IDSFLphf8h5xX9Y6LuN9-229" value="matricula VARCHAR(15) NULL" style="shape=partialRectangle;html=1;whiteSpace=wrap;connectable=0;fillColor=none;top=0;left=0;bottom=0;right=0;align=left;spacingLeft=6;overflow=hidden;strokeColor=inherit;fontSize=16;" vertex="1" parent="IDSFLphf8h5xX9Y6LuN9-227">
          <mxGeometry x="40" width="276" height="40" as="geometry">
            <mxRectangle width="276" height="40" as="alternateBounds" />
          </mxGeometry>
        </mxCell>
        <mxCell id="IDSFLphf8h5xX9Y6LuN9-314" value="Grupo_empresarial" style="shape=table;startSize=30;container=1;collapsible=0;childLayout=tableLayout;fixedRows=1;rowLines=0;fontStyle=0;strokeColor=#6c8ebf;fontSize=16;fillColor=#dae8fc;" vertex="1" parent="1">
          <mxGeometry x="1000" y="-400" width="316" height="150" as="geometry" />
        </mxCell>
        <mxCell id="IDSFLphf8h5xX9Y6LuN9-318" value="" style="shape=tableRow;horizontal=0;startSize=0;swimlaneHead=0;swimlaneBody=0;top=0;left=0;bottom=0;right=0;collapsible=0;dropTarget=0;fillColor=none;points=[[0,0.5],[1,0.5]];portConstraint=eastwest;strokeColor=inherit;fontSize=16;" vertex="1" parent="IDSFLphf8h5xX9Y6LuN9-314">
          <mxGeometry y="30" width="316" height="40" as="geometry" />
        </mxCell>
        <mxCell id="IDSFLphf8h5xX9Y6LuN9-319" value="PK&lt;br&gt;FK" style="shape=partialRectangle;html=1;whiteSpace=wrap;connectable=0;fillColor=none;top=0;left=0;bottom=0;right=0;overflow=hidden;strokeColor=inherit;fontSize=16;" vertex="1" parent="IDSFLphf8h5xX9Y6LuN9-318">
          <mxGeometry width="40" height="40" as="geometry">
            <mxRectangle width="40" height="40" as="alternateBounds" />
          </mxGeometry>
        </mxCell>
        <mxCell id="IDSFLphf8h5xX9Y6LuN9-320" value="&lt;span style=&quot;color: rgb(0, 0, 0); font-family: Helvetica; font-size: 16px; font-style: normal; font-variant-ligatures: normal; font-variant-caps: normal; font-weight: 400; letter-spacing: normal; orphans: 2; text-align: left; text-indent: 0px; text-transform: none; widows: 2; word-spacing: 0px; -webkit-text-stroke-width: 0px; background-color: rgb(251, 251, 251); text-decoration-thickness: initial; text-decoration-style: initial; text-decoration-color: initial; float: none; display: inline !important;&quot;&gt;modelo varchar(50) NULL,&lt;/span&gt;" style="shape=partialRectangle;html=1;whiteSpace=wrap;connectable=0;fillColor=none;top=0;left=0;bottom=0;right=0;align=left;spacingLeft=6;overflow=hidden;strokeColor=inherit;fontSize=16;" vertex="1" parent="IDSFLphf8h5xX9Y6LuN9-318">
          <mxGeometry x="40" width="276" height="40" as="geometry">
            <mxRectangle width="276" height="40" as="alternateBounds" />
          </mxGeometry>
        </mxCell>
        <mxCell id="IDSFLphf8h5xX9Y6LuN9-354" value="" style="shape=tableRow;horizontal=0;startSize=0;swimlaneHead=0;swimlaneBody=0;top=0;left=0;bottom=0;right=0;collapsible=0;dropTarget=0;fillColor=none;points=[[0,0.5],[1,0.5]];portConstraint=eastwest;strokeColor=inherit;fontSize=16;" vertex="1" parent="IDSFLphf8h5xX9Y6LuN9-314">
          <mxGeometry y="70" width="316" height="30" as="geometry" />
        </mxCell>
        <mxCell id="IDSFLphf8h5xX9Y6LuN9-355" value="" style="shape=partialRectangle;html=1;whiteSpace=wrap;connectable=0;fillColor=none;top=0;left=0;bottom=0;right=0;overflow=hidden;strokeColor=inherit;fontSize=16;" vertex="1" parent="IDSFLphf8h5xX9Y6LuN9-354">
          <mxGeometry width="40" height="30" as="geometry">
            <mxRectangle width="40" height="30" as="alternateBounds" />
          </mxGeometry>
        </mxCell>
        <mxCell id="IDSFLphf8h5xX9Y6LuN9-356" value="&lt;span style=&quot;color: rgb(0, 0, 0); font-family: Helvetica; font-size: 16px; font-style: normal; font-variant-ligatures: normal; font-variant-caps: normal; font-weight: 400; letter-spacing: normal; orphans: 2; text-align: left; text-indent: 0px; text-transform: none; widows: 2; word-spacing: 0px; -webkit-text-stroke-width: 0px; background-color: rgb(251, 251, 251); text-decoration-thickness: initial; text-decoration-style: initial; text-decoration-color: initial; float: none; display: inline !important;&quot;&gt;grupo VARCHAR(50) NULL,&lt;/span&gt;" style="shape=partialRectangle;html=1;whiteSpace=wrap;connectable=0;fillColor=none;top=0;left=0;bottom=0;right=0;align=left;spacingLeft=6;overflow=hidden;strokeColor=inherit;fontSize=16;" vertex="1" parent="IDSFLphf8h5xX9Y6LuN9-354">
          <mxGeometry x="40" width="276" height="30" as="geometry">
            <mxRectangle width="276" height="30" as="alternateBounds" />
          </mxGeometry>
        </mxCell>
        <mxCell id="IDSFLphf8h5xX9Y6LuN9-364" value="" style="shape=tableRow;horizontal=0;startSize=0;swimlaneHead=0;swimlaneBody=0;top=0;left=0;bottom=0;right=0;collapsible=0;dropTarget=0;fillColor=none;points=[[0,0.5],[1,0.5]];portConstraint=eastwest;strokeColor=inherit;fontSize=16;" vertex="1" parent="IDSFLphf8h5xX9Y6LuN9-314">
          <mxGeometry y="100" width="316" height="50" as="geometry" />
        </mxCell>
        <mxCell id="IDSFLphf8h5xX9Y6LuN9-365" value="PK&lt;br&gt;FK" style="shape=partialRectangle;html=1;whiteSpace=wrap;connectable=0;fillColor=none;top=0;left=0;bottom=0;right=0;overflow=hidden;strokeColor=inherit;fontSize=16;" vertex="1" parent="IDSFLphf8h5xX9Y6LuN9-364">
          <mxGeometry width="40" height="50" as="geometry">
            <mxRectangle width="40" height="50" as="alternateBounds" />
          </mxGeometry>
        </mxCell>
        <mxCell id="IDSFLphf8h5xX9Y6LuN9-366" value="marca VARCHAR(50) NOT NULL" style="shape=partialRectangle;html=1;whiteSpace=wrap;connectable=0;fillColor=none;top=0;left=0;bottom=0;right=0;align=left;spacingLeft=6;overflow=hidden;strokeColor=inherit;fontSize=16;" vertex="1" parent="IDSFLphf8h5xX9Y6LuN9-364">
          <mxGeometry x="40" width="276" height="50" as="geometry">
            <mxRectangle width="276" height="50" as="alternateBounds" />
          </mxGeometry>
        </mxCell>
        <mxCell id="IDSFLphf8h5xX9Y6LuN9-399" style="edgeStyle=orthogonalEdgeStyle;rounded=0;orthogonalLoop=1;jettySize=auto;html=1;exitX=0;exitY=0.5;exitDx=0;exitDy=0;" edge="1" parent="1" source="IDSFLphf8h5xX9Y6LuN9-318" target="IDSFLphf8h5xX9Y6LuN9-330">
          <mxGeometry relative="1" as="geometry" />
        </mxCell>
        <mxCell id="IDSFLphf8h5xX9Y6LuN9-401" style="edgeStyle=orthogonalEdgeStyle;rounded=0;orthogonalLoop=1;jettySize=auto;html=1;exitX=0;exitY=0.5;exitDx=0;exitDy=0;" edge="1" parent="1" source="IDSFLphf8h5xX9Y6LuN9-364" target="IDSFLphf8h5xX9Y6LuN9-375">
          <mxGeometry relative="1" as="geometry" />
        </mxCell>
        <mxCell id="8Zs8ZzavVOuHBAo9YLXA-1" style="edgeStyle=orthogonalEdgeStyle;rounded=0;orthogonalLoop=1;jettySize=auto;html=1;exitX=0;exitY=0.5;exitDx=0;exitDy=0;entryX=0.997;entryY=0.35;entryDx=0;entryDy=0;entryPerimeter=0;" edge="1" parent="1" source="IDSFLphf8h5xX9Y6LuN9-5" target="IDSFLphf8h5xX9Y6LuN9-227">
          <mxGeometry relative="1" as="geometry" />
        </mxCell>
        <mxCell id="8Zs8ZzavVOuHBAo9YLXA-2" style="edgeStyle=orthogonalEdgeStyle;rounded=0;orthogonalLoop=1;jettySize=auto;html=1;exitX=0;exitY=0.5;exitDx=0;exitDy=0;entryX=1.006;entryY=0.325;entryDx=0;entryDy=0;entryPerimeter=0;" edge="1" parent="1" source="IDSFLphf8h5xX9Y6LuN9-388" target="IDSFLphf8h5xX9Y6LuN9-195">
          <mxGeometry relative="1" as="geometry">
            <Array as="points">
              <mxPoint x="510" y="-190" />
              <mxPoint x="510" y="-347" />
            </Array>
          </mxGeometry>
        </mxCell>
      </root>
    </mxGraphModel>
  </diagram>
</mxfile>
